<svg xmlns="http://www.w3.org/2000/svg" xmlns:xlink="http://www.w3.org/1999/xlink" width="0" height="0" style="position:absolute">
	
		<symbol id="icon-arrow" viewBox="0 0 21.9949 27.9937">
			<path clip-rule="evenodd" fill="none" d="M2.5 4.554l14.838 9.443L2.5 23.44z"></path><path d="M5 9.108l7.682 4.889L5 18.885V9.108M0 0v27.994l21.995-13.997L0 0z"></path>
		</symbol>
	
		<symbol id="icon-basket" viewBox="0 0 22 22">
			<path d="M6.6 17.6c-1.21 0-2.2.99-2.2 2.2 0 1.21.99 2.2 2.2 2.2 1.21 0 2.2-.99 2.2-2.2 0-1.21-.99-2.2-2.2-2.2zM0 0v2.2h2.2l3.96 8.36-1.54 2.64c-.11.33-.22.77-.22 1.1 0 1.21.99 2.2 2.2 2.2h13.2v-2.2H7.04c-.11 0-.22-.11-.22-.22v-.11l.99-1.87h8.14c.88 0 1.54-.44 1.87-1.1l3.96-7.15c.22-.22.22-.33.22-.55 0-.66-.44-1.1-1.1-1.1H4.62L3.63 0H0zm17.6 17.6c-1.21 0-2.2.99-2.2 2.2 0 1.21.99 2.2 2.2 2.2 1.21 0 2.2-.99 2.2-2.2 0-1.21-.99-2.2-2.2-2.2z"></path>
		</symbol>
	
		<symbol id="icon-bolt" viewBox="0 0 20.9975 35.001">
			<path d="M20.905 14.28a.556.556 0 0 0-.596-.25l-6.735 1.568L15.624.666a.586.586 0 0 0-.345-.622.553.553 0 0 0-.67.195L.11 20.68a.601.601 0 0 0-.022.657.557.557 0 0 0 .581.263l7.313-1.407-2.137 14.134c-.04.266.101.525.342.63a.56.56 0 0 0 .673-.195l14.029-19.816a.599.599 0 0 0 .017-.665z"></path>
		</symbol>
	
		<symbol id="icon-close" viewBox="0 0 21.9888973 22.0177002">
			<path fill-rule="evenodd" clip-rule="evenodd" d="M2.816 0l19.17 19.197-2.816 2.82L0 2.82 2.816 0z"></path><path fill-rule="evenodd" clip-rule="evenodd" d="M19.173 0L.003 19.197l2.816 2.82L21.989 2.82 19.173 0z"></path>
		</symbol>
	
		<symbol id="icon-drop" viewBox="0 0 20.0207 30.0511">
			<path d="M9.405.356l-8.082 14.39c-1.698 3.042-1.83 6.91 0 10.167 2.75 4.897 8.868 6.59 13.665 3.782 4.796-2.807 6.455-9.053 3.705-13.95L10.61.358a.688.688 0 0 0-1.206 0z"></path>
		</symbol>
	
		<symbol id="icon-facebook" viewBox="0 0 470.513 470.513">
			<path d="M271.521 154.17v-40.541c0-6.086.28-10.8.849-14.13.567-3.335 1.857-6.615 3.859-9.853 1.999-3.236 5.236-5.47 9.706-6.708 4.476-1.24 10.424-1.858 17.85-1.858h40.539V0h-64.809c-37.5 0-64.433 8.897-80.803 26.691-16.368 17.798-24.551 44.014-24.551 78.658v48.82h-48.542v81.086h48.539v235.256h97.362V235.256h64.805l8.566-81.086h-73.37z"></path>
		</symbol>
	
		<symbol id="icon-gear" viewBox="0 0 33.9967 33.9964">
			<path d="M33.997 19.09v-4.25l-5.08-2.116a11.51 11.51 0 0 0-.473-1.162l2.051-5.105-3.005-3.004-5.06 2.083c-.385-.187-.78-.344-1.186-.49L19.09 0h-4.25l-2.1 5.03c-.423.15-.83.306-1.232.498l-5.05-2.03-3.005 3.005 2.059 5.005c-.2.41-.361.83-.515 1.262L0 14.907v4.25l5 2.082c.155.432.32.851.519 1.262l-2.02 5.038 3.004 3.005 5.018-2.067c.402.19.813.345 1.236.49l2.15 5.03h4.25l2.103-5.055c.403-.15.801-.307 1.182-.49l5.096 2.042 3.005-3.004-2.093-5.072c.18-.38.325-.768.466-1.162l5.08-2.166zm-17.032 4.282a6.376 6.376 0 0 1-6.374-6.374 6.377 6.377 0 0 1 6.374-6.374 6.376 6.376 0 0 1 6.375 6.374 6.376 6.376 0 0 1-6.375 6.374z"></path>
		</symbol>
	
		<symbol id="icon-gears" viewBox="0 0 72.99869 73">
			<path d="M1.283 18.356A1.297 1.297 0 0 0 0 19.666l.063 5.587c.008.71.588 1.281 1.298 1.281h.015l1.933.095a19.281 19.281 0 0 0 2.652 6.195l-1.266 1.46a1.293 1.293 0 0 0 .021 1.831l4.003 3.906a1.296 1.296 0 0 0 1.836-.02l1.433-1.297a19.35 19.35 0 0 0 5.926 2.432c.15-.258.335-.499.552-.716a3.49 3.49 0 0 1 2.412-1.027l.86-.053.02-.067c.273-.958.603-1.897.987-2.813a14.28 14.28 0 0 1-6.73-1.416 14.269 14.269 0 0 1-3.752-2.638 14.246 14.246 0 0 1-2.923-4.082L19.77 26a4.53 4.53 0 0 0 2.67.731l1.339 1.306 4.393-4.392-1.385-1.35a4.512 4.512 0 0 0-.88-2.77l2.075-10.384a14.27 14.27 0 0 1 4.258 2.87 14.24 14.24 0 0 1 3.513 5.523c.587 1.694.845 3.477.774 5.25a25.232 25.232 0 0 1 2.705-.935l.017-.283.035-.576c.017-.91.38-1.764 1.025-2.41.342-.341.885-.792.885-.792a19.282 19.282 0 0 0-2.652-6.194l1.266-1.46a1.294 1.294 0 0 0-.02-1.832l-4.004-3.906a1.295 1.295 0 0 0-1.835.02l-1.434 1.297a19.362 19.362 0 0 0-6.264-2.507l-.139-1.926a1.297 1.297 0 0 0-1.313-1.28l-5.597.062a1.297 1.297 0 0 0-1.284 1.31l-.095 1.93a19.364 19.364 0 0 0-6.206 2.647l-1.463-1.264a1.296 1.296 0 0 0-.907-.369c-.337 0-.674.13-.928.39L4.405 8.702a1.294 1.294 0 0 0 .021 1.832l1.299 1.431a19.282 19.282 0 0 0-2.512 6.253l-1.93.138zm18.46.08a4.551 4.551 0 0 0-1.407 1.485l-8.447 1.778-1.925.405a14.274 14.274 0 0 1 1.428-6.12 14.245 14.245 0 0 1 2.643-3.744 14.272 14.272 0 0 1 5.534-3.506 14.346 14.346 0 0 1 4.141-.775l-.362 1.927-1.605 8.55zm4.013 5.24c-.02.021-.041.04-.062.06l-.02.02a2.1 2.1 0 0 1-1.423.552 2.098 2.098 0 0 1-1.886-1.171 2.097 2.097 0 0 1 1.886-3.027 2.111 2.111 0 0 1 1.471.598c.83.81.846 2.14.034 2.969z"></path><path d="M71.434 51.156c.865 0 1.565-.701 1.565-1.564l-.006-6.74c0-.862-.702-1.561-1.566-1.561h-.001l-2.33-.14a23.257 23.257 0 0 0-3.122-7.503l1.546-1.746c.611-.61.61-1.6-.002-2.21l-4.778-4.761a1.563 1.563 0 0 0-1.107-.457c-.4 0-.802.153-1.108.459l-1.746 1.546a23.357 23.357 0 0 0-7.523-3.104l-.144-2.324c0-.863-.701-1.562-1.565-1.562h-.002l-3.156.003h-.973l-.972.001-1.651.002c-.865 0-1.565.7-1.565 1.564l-.139 2.324a23.407 23.407 0 0 0-7.191 2.913l-.14.087c-.062.039-.125.077-.187.117l-1.749-1.543a1.562 1.562 0 0 0-1.361-.435 1.558 1.558 0 0 0-.853.437l-.045.045-4.393 4.392-.333.333a1.562 1.562 0 0 0 .002 2.21l1.55 1.742c-.038.058-.074.117-.11.175a23.412 23.412 0 0 0-1.289 2.35 23.192 23.192 0 0 0-1.712 4.985l-2.328.142c-.865.001-1.566.701-1.565 1.565l.001 1.483.001.987.001.978.003 3.291c0 .863.701 1.562 1.566 1.562h.001l2.329.138a23.253 23.253 0 0 0 3.123 7.505l-1.547 1.745c-.61.61-.61 1.6.002 2.21l4.78 4.761a1.562 1.562 0 0 0 2.214-.002l1.745-1.546a23.352 23.352 0 0 0 7.524 3.104l.143 2.325c.001.862.702 1.561 1.566 1.561h.001l6.753-.006c.865 0 1.565-.7 1.564-1.564l.14-2.324a23.35 23.35 0 0 0 7.518-3.117l1.749 1.543c.305.305.706.457 1.106.457.401 0 .802-.153 1.108-.459l4.77-4.77c.612-.61.61-1.6-.001-2.21l-1.55-1.742a23.256 23.256 0 0 0 3.11-7.51l2.33-.142zm-8.888.529a17.048 17.048 0 0 1-.924 2.228 17.29 17.29 0 0 1-9.952 8.646 17.247 17.247 0 0 1-5.464.888h-.015a17.248 17.248 0 0 1-5.957-1.056l7.025-10.788a5.467 5.467 0 0 0 2.92-1.619l10.959-.01 1.881-.001a16.941 16.941 0 0 1-.473 1.712zm-32.7.027a17.157 17.157 0 0 1-.89-5.453 17.203 17.203 0 0 1 1.19-6.303 17.202 17.202 0 0 1 3.529-5.536l.181.27 1.137 1.696 1.808 2.696.552.824.553.825 2.933 4.374a5.469 5.469 0 0 0 .043 2.466l-5.776 8.647-1.316 1.97a17.251 17.251 0 0 1-3.944-6.476zM42.38 29.466a17.315 17.315 0 0 1 3.798-.423h.015a17.238 17.238 0 0 1 7.683 1.8 17.29 17.29 0 0 1 7.734 7.707 17.06 17.06 0 0 1 1.404 3.938l-1.881.001-10.959.01a5.463 5.463 0 0 0-3.1-1.645l-5.796-8.868-.615-.941-.58-.889a16.98 16.98 0 0 1 2.297-.69zm3.813 14.246a2.535 2.535 0 0 1 2.534 2.634v.034a2.535 2.535 0 0 1-2.532 2.397h-.002a2.537 2.537 0 0 1-2.537-2.53 2.532 2.532 0 0 1 2.535-2.535h.002z"></path>
		</symbol>
	
		<symbol id="icon-google-plus" viewBox="0 0 475.092 475.092">
			<path d="M273.372 302.498a148.384 148.384 0 0 0-16.7-18.842c-6.091-5.804-12.183-11.088-18.271-15.845-6.092-4.757-11.659-9.329-16.702-13.709-5.042-4.374-9.135-8.945-12.275-13.702-3.14-4.757-4.711-9.61-4.711-14.558 0-6.855 2.19-13.278 6.567-19.274 4.377-5.996 9.707-11.799 15.986-17.417 6.28-5.617 12.559-11.753 18.844-18.415 6.276-6.665 11.604-15.465 15.985-26.412 4.373-10.944 6.563-23.458 6.563-37.542 0-16.75-3.713-32.835-11.136-48.25-7.423-15.418-17.89-27.412-31.405-35.976h38.54L303.2 0H178.441c-17.699 0-35.498 1.906-53.384 5.72-26.453 5.9-48.723 19.368-66.806 40.397-18.08 21.033-27.122 44.873-27.122 71.52 0 28.171 10.138 51.583 30.406 70.233 20.269 18.649 44.585 27.978 72.945 27.978 5.71 0 12.371-.478 19.985-1.427-.381 1.521-1.043 3.567-1.997 6.136s-1.715 4.62-2.286 6.14c-.57 1.521-1.047 3.375-1.425 5.566a38.99 38.99 0 0 0-.571 6.71c0 12.563 6.086 26.744 18.271 42.541-14.465.387-28.737 1.67-42.825 3.86-14.084 2.19-28.833 5.616-44.252 10.28-15.417 4.661-29.217 11.42-41.396 20.27-12.182 8.854-21.317 19.366-27.408 31.549C3.533 361.559.01 374.405.01 386.017c0 12.751 2.857 24.314 8.565 34.69 5.708 10.369 13.035 18.842 21.982 25.406 8.945 6.57 19.273 12.083 30.978 16.562 11.704 4.47 23.315 7.659 34.829 9.562 11.516 1.903 22.888 2.854 34.119 2.854 51.007 0 90.981-12.464 119.909-37.397 26.648-23.223 39.971-50.062 39.971-80.517 0-10.855-1.57-20.984-4.712-30.409-3.141-9.431-7.231-17.514-12.279-24.27zM163.311 198.722c-9.707 0-18.937-2.475-27.694-7.426-8.757-4.95-16.18-11.374-22.27-19.273-6.088-7.898-11.418-16.796-15.987-26.695-4.567-9.896-7.944-19.792-10.135-29.692-2.19-9.895-3.284-19.318-3.284-28.265 0-18.271 4.854-33.974 14.562-47.108 9.705-13.134 23.411-19.701 41.112-19.701 12.563 0 23.935 3.899 34.118 11.704 10.183 7.804 18.177 17.701 23.984 29.692a187.496 187.496 0 0 1 13.417 37.257c3.14 12.847 4.711 24.983 4.711 36.403 0 19.036-4.139 34.317-12.419 45.833-8.282 11.513-21.651 17.271-40.115 17.271zm78.94 214.401c-5.23 8.949-12.319 15.94-21.267 20.981-8.946 5.048-18.509 8.758-28.693 11.14-10.183 2.385-20.889 3.572-32.12 3.572-12.182 0-24.27-1.431-36.258-4.284-11.99-2.851-23.459-7.187-34.403-12.991-10.944-5.8-19.795-13.798-26.551-23.982-6.757-10.184-10.135-21.744-10.135-34.69 0-11.419 2.568-21.601 7.708-30.55 5.142-8.945 11.709-16.084 19.702-21.408 7.994-5.332 17.319-9.713 27.979-13.131 10.66-3.433 20.937-5.808 30.833-7.139 9.895-1.335 19.985-1.995 30.262-1.995 6.283 0 11.043.191 14.277.567 1.143.767 4.043 2.759 8.708 5.996s7.804 5.428 9.423 6.57c1.615 1.137 4.567 3.326 8.85 6.563 4.281 3.237 7.327 5.661 9.135 7.279 1.803 1.618 4.421 4.045 7.849 7.279 3.424 3.237 5.948 6.043 7.566 8.422a982.05 982.05 0 0 0 5.996 8.702c2.38 3.433 4.043 6.715 4.998 9.855a158.985 158.985 0 0 1 2.707 10.277c.855 3.72 1.283 7.569 1.283 11.57.005 11.987-2.613 22.456-7.849 31.397z"></path><path d="M401.998 73.089V0h-36.549v73.089h-73.091v36.547h73.091v73.089h36.549v-73.089h73.083V73.089z"></path>
		</symbol>
	
		<symbol id="icon-hamburger" viewBox="0 0 24.0000992 22.0000992">
			<path fill-rule="evenodd" clip-rule="evenodd" d="M0 0h24v4H0V0zM0 18h24v4H0v-4zM0 9h24v4H0V9z"></path>
		</symbol>
	
		<symbol id="icon-instagram" viewBox="0 0 438.536 438.536">
			<path d="M421.981 16.562C410.941 5.519 397.711 0 382.298 0H56.248C40.83 0 27.604 5.521 16.561 16.562 5.52 27.6.001 40.828.001 56.243V382.29c0 15.413 5.518 28.644 16.56 39.683 11.043 11.04 24.272 16.563 39.687 16.563h326.046c15.41 0 28.644-5.523 39.684-16.563 11.043-11.039 16.557-24.27 16.557-39.683V56.243c-.001-15.418-5.514-28.639-16.554-39.681zM157.462 158.025c17.224-16.652 37.924-24.982 62.097-24.982 24.36 0 45.153 8.33 62.381 24.982 17.228 16.655 25.837 36.785 25.837 60.386 0 23.598-8.609 43.729-25.837 60.379-17.228 16.659-38.014 24.988-62.381 24.988-24.172 0-44.87-8.336-62.097-24.988-17.228-16.652-25.841-36.781-25.841-60.379 0-23.601 8.613-43.73 25.841-60.386zm231.403 212.564c0 4.945-1.718 9.083-5.141 12.416-3.433 3.33-7.519 4.996-12.282 4.996h-305.2c-4.948 0-9.091-1.666-12.419-4.996-3.333-3.326-4.998-7.471-4.998-12.416V185.575H89.08c-3.805 11.993-5.708 24.462-5.708 37.402 0 36.553 13.322 67.715 39.969 93.511 26.65 25.786 58.721 38.685 96.217 38.685 24.744 0 47.583-5.903 68.527-17.703 20.937-11.807 37.486-27.839 49.676-48.112 12.183-20.272 18.274-42.4 18.274-66.38 0-12.94-1.91-25.406-5.715-37.402h38.547V370.59h-.002zm0-254.963c0 5.52-1.903 10.184-5.716 13.99-3.805 3.809-8.466 5.711-13.989 5.711h-49.676c-5.517 0-10.185-1.903-13.99-5.711-3.806-3.806-5.708-8.47-5.708-13.99V68.522c0-5.33 1.902-9.945 5.708-13.848 3.806-3.901 8.474-5.854 13.99-5.854h49.676c5.523 0 10.185 1.952 13.989 5.854 3.812 3.903 5.716 8.518 5.716 13.848v47.104z"></path>
		</symbol>
	
		<symbol id="icon-lamp" viewBox="0 0 22.9971 34.0055">
			<path d="M18.398 27.63v-2.126H4.599v2.125c0 3.52 3.099 6.376 6.9 6.376 3.81 0 6.899-2.868 6.899-6.376zM11.498 0C5.146 0 0 4.756 0 10.627c0 3.476 1.806 6.563 4.6 8.501v4.251h13.798v-4.25c2.793-1.94 4.6-5.026 4.6-8.502C22.997 4.757 17.85 0 11.497 0z"></path>
		</symbol>
	
		<symbol id="icon-location" viewBox="0 0 62 80">
			<path clip-rule="evenodd" fill="none" stroke="currentColor" stroke-width="6" stroke-miterlimit="10" d="M31 3.5c14.912 0 27 12.088 27 27 0 14.911-12.088 27-27 27S4 45.41 4 30.5c0-14.912 12.088-27 27-27z"></path><path fill-rule="evenodd" clip-rule="evenodd" d="M44.997 56.5L31 78.494 17.003 56.5h27.994z"></path>
		</symbol>
	
		<symbol id="icon-map-marker" viewBox="73.0900116 0 292.3540344 438.5360107">
			<path d="M322.621 42.825C294.073 14.272 259.619 0 219.268 0c-40.353 0-74.803 14.275-103.353 42.825-28.549 28.549-42.825 63-42.825 103.353 0 20.749 3.14 37.782 9.419 51.106l104.21 220.986c2.856 6.276 7.283 11.225 13.278 14.838 5.996 3.617 12.419 5.428 19.273 5.428 6.852 0 13.278-1.811 19.273-5.428 5.996-3.613 10.513-8.562 13.559-14.838L356.02 197.284c6.282-13.324 9.424-30.358 9.424-51.106.005-40.353-14.268-74.8-42.823-103.353zm-51.679 155.03c-14.273 14.272-31.497 21.411-51.674 21.411s-37.401-7.139-51.678-21.411c-14.275-14.277-21.414-31.501-21.414-51.678 0-20.175 7.139-37.402 21.414-51.675 14.277-14.275 31.504-21.414 51.678-21.414 20.177 0 37.401 7.139 51.674 21.414 14.274 14.272 21.413 31.5 21.413 51.675s-7.138 37.398-21.413 51.678z"></path>
		</symbol>
	
		<symbol id="icon-pdf" viewBox="0 0 53.0032997 70.9981995">
			<path d="M18.77 32.763c-.379-.452-.873-.83-1.485-1.137-.61-.3-1.363-.452-2.255-.452H8.284v13.502h4.034V40.59H14.7c.746 0 1.433-.1 2.064-.296a4.465 4.465 0 0 0 1.63-.888 3.967 3.967 0 0 0 1.063-1.496c.25-.597.375-1.307.375-2.126 0-.48-.082-.988-.247-1.534a4.21 4.21 0 0 0-.815-1.488zm-2.94 3.978a1.191 1.191 0 0 1-.495.437c-.202.093-.43.151-.687.168-.257.017-.514.03-.77.03h-1.559v-2.743h1.797c.245 0 .483.01.715.032.232.018.437.07.614.16.177.087.318.22.422.397.102.175.155.416.155.717 0 .34-.064.609-.192.802zM32.39 33.264a5.162 5.162 0 0 0-1.822-1.515c-.752-.384-1.674-.575-2.76-.575H21.19v13.502h5.829c1.136 0 2.126-.158 2.97-.475.843-.313 1.54-.766 2.088-1.35.55-.589.958-1.3 1.23-2.136.268-.84.402-1.776.402-2.81 0-.842-.104-1.675-.31-2.486a6.123 6.123 0 0 0-1.008-2.155zm-2.813 5.644a3.151 3.151 0 0 1-.403 1.096 2.534 2.534 0 0 1-.87.861c-.38.234-.88.348-1.502.348h-1.576v-6.58h1.283c.731 0 1.311.126 1.732.378.422.252.74.555.954.908.212.353.35.707.403 1.069.054.36.084.646.084.861a6.514 6.514 0 0 1-.105 1.059zM35.452 44.676h4.033v-5.143h5.224v-3.216h-5.224v-1.684h6.084v-3.459H35.452v13.502z"></path><path d="M43.155 0H0v70.998h53.003V9.85L43.155 0zm5.766 66.823H4.075V4.176h36.692v7.309h8.154v55.338z"></path>
		</symbol>
	
		<symbol id="icon-pinterest" viewBox="0 0 438.529 438.529">
			<path d="M409.141 109.203c-19.608-33.592-46.205-60.189-79.798-79.796C295.751 9.801 259.065 0 219.281 0 179.5 0 142.812 9.801 109.22 29.407c-33.597 19.604-60.194 46.201-79.8 79.796C9.809 142.8.008 179.485.008 219.267c0 44.35 12.085 84.611 36.258 120.767 24.172 36.172 55.863 62.912 95.073 80.232-.762-20.365.476-37.209 3.709-50.532l28.267-119.348c-4.76-9.329-7.139-20.93-7.139-34.831 0-16.175 4.089-29.689 12.275-40.541 8.186-10.85 18.177-16.274 29.979-16.274 9.514 0 16.841 3.14 21.982 9.42 5.142 6.283 7.705 14.181 7.705 23.7 0 5.896-1.099 13.084-3.289 21.554-2.188 8.471-5.041 18.273-8.562 29.409-3.521 11.132-6.045 20.036-7.566 26.692-2.663 11.608-.476 21.553 6.567 29.838 7.042 8.278 16.372 12.423 27.983 12.423 20.365 0 37.065-11.324 50.107-33.972 13.038-22.655 19.554-50.159 19.554-82.514 0-24.938-8.042-45.21-24.129-60.813-16.085-15.609-38.496-23.417-67.239-23.417-32.161 0-58.192 10.327-78.082 30.978-19.891 20.654-29.836 45.352-29.836 74.091 0 17.132 4.854 31.505 14.56 43.112 3.235 3.806 4.283 7.898 3.14 12.279-.381 1.143-1.141 3.997-2.284 8.562-1.138 4.565-1.903 7.522-2.281 8.851-1.521 6.091-5.14 7.994-10.85 5.708-14.654-6.085-25.791-16.652-33.402-31.689-7.614-15.037-11.422-32.456-11.422-52.246 0-12.753 2.047-25.505 6.14-38.256 4.089-12.756 10.468-25.078 19.126-36.975 8.663-11.9 19.036-22.417 31.123-31.549 12.082-9.135 26.787-16.462 44.108-21.982s35.972-8.28 55.959-8.28c27.032 0 51.295 5.995 72.8 17.986 21.512 11.992 37.925 27.502 49.252 46.537 11.327 19.036 16.987 39.403 16.987 61.101 0 28.549-4.948 54.243-14.842 77.086-9.896 22.839-23.887 40.778-41.973 53.813-18.083 13.042-38.637 19.561-61.675 19.561-11.607 0-22.456-2.714-32.548-8.135-10.085-5.427-17.034-11.847-20.839-19.273-8.566 33.685-13.706 53.77-15.42 60.24-3.616 13.508-11.038 29.119-22.27 46.819 20.367 6.091 41.112 9.13 62.24 9.13 39.781 0 76.47-9.801 110.062-29.41 33.595-19.602 60.192-46.199 79.794-79.791 19.606-33.599 29.407-70.287 29.407-110.065.01-39.778-9.777-76.468-29.376-110.06z"></path>
		</symbol>
	
		<symbol id="icon-reply" viewBox="0 0 511.63 511.631">
			<path d="M496.5 233.842c-30.841-76.706-114.112-115.06-249.823-115.06h-63.953V45.693c0-4.952-1.809-9.235-5.424-12.85-3.617-3.617-7.896-5.426-12.847-5.426-4.952 0-9.235 1.809-12.85 5.426L5.424 179.021C1.809 182.641 0 186.922 0 191.871c0 4.948 1.809 9.229 5.424 12.847L151.604 350.9c3.619 3.613 7.902 5.428 12.85 5.428 4.947 0 9.229-1.814 12.847-5.428 3.616-3.614 5.424-7.898 5.424-12.848v-73.094h63.953c18.649 0 35.349.568 50.099 1.708a361.232 361.232 0 0 1 43.968 6.143c14.564 2.95 27.224 6.991 37.979 12.135 10.753 5.144 20.794 11.756 30.122 19.842 9.329 8.094 16.943 17.7 22.847 28.839 5.896 11.136 10.513 24.311 13.846 39.539 3.326 15.229 4.997 32.456 4.997 51.675 0 10.466-.479 22.176-1.428 35.118 0 1.137-.236 3.375-.715 6.708-.473 3.333-.712 5.852-.712 7.562 0 2.851.808 5.232 2.423 7.136 1.622 1.902 3.86 2.851 6.714 2.851 3.046 0 5.708-1.615 7.994-4.853 1.328-1.711 2.561-3.806 3.71-6.283a503.014 503.014 0 0 0 3.854-8.562 641.239 641.239 0 0 0 2.998-6.848c24.17-54.238 36.258-97.158 36.258-128.756-.002-37.873-5.043-69.568-15.132-95.07z"></path>
		</symbol>
	
		<symbol id="icon-search" viewBox="0 0 475.084 475.084">
			<path d="M464.524 412.846l-97.929-97.925c23.6-34.068 35.406-72.047 35.406-113.917 0-27.218-5.284-53.249-15.852-78.087-10.561-24.842-24.838-46.254-42.825-64.241-17.987-17.987-39.396-32.264-64.233-42.826C254.246 5.285 228.217.003 200.999.003c-27.216 0-53.247 5.282-78.085 15.847C98.072 26.412 76.66 40.689 58.673 58.676c-17.989 17.987-32.264 39.403-42.827 64.241C5.282 147.758 0 173.786 0 201.004c0 27.216 5.282 53.238 15.846 78.083 10.562 24.838 24.838 46.247 42.827 64.234 17.987 17.993 39.403 32.264 64.241 42.832 24.841 10.563 50.869 15.844 78.085 15.844 41.879 0 79.852-11.807 113.922-35.405l97.929 97.641c6.852 7.231 15.406 10.849 25.693 10.849 9.897 0 18.467-3.617 25.694-10.849 7.23-7.23 10.848-15.796 10.848-25.693.003-10.082-3.518-18.651-10.561-25.694zM291.363 291.358c-25.029 25.033-55.148 37.549-90.364 37.549-35.21 0-65.329-12.519-90.36-37.549-25.031-25.029-37.546-55.144-37.546-90.36 0-35.21 12.518-65.334 37.546-90.36 25.026-25.032 55.15-37.546 90.36-37.546 35.212 0 65.331 12.519 90.364 37.546 25.033 25.026 37.548 55.15 37.548 90.36 0 35.216-12.519 65.331-37.548 90.36z"></path>
		</symbol>
	
		<symbol id="icon-star" viewBox="0 0 14.65625 13.96875">
			<path fill-rule="evenodd" clip-rule="evenodd" stroke="currentColor" stroke-miterlimit="10" d="M7.35 1.202L9.262 5.08l4.28.622-3.097 3.02.731 4.262-3.828-2.013-3.828 2.013.731-4.263-3.097-3.019 4.28-.622z"></path>
		</symbol>
	
		<symbol id="icon-twitter" viewBox="0 0 449.956 449.956">
			<path d="M449.956 85.657c-17.702 7.614-35.408 12.369-53.102 14.279 19.985-11.991 33.503-28.931 40.546-50.819-18.281 10.847-37.787 18.268-58.532 22.267-18.274-19.414-40.73-29.125-67.383-29.125-25.502 0-47.246 8.992-65.24 26.98-17.984 17.987-26.977 39.731-26.977 65.235 0 6.851.76 13.896 2.284 21.128-37.688-1.903-73.042-11.372-106.068-28.407C82.46 110.158 54.433 87.46 31.403 59.101c-8.375 14.272-12.564 29.787-12.564 46.536 0 15.798 3.711 30.456 11.138 43.97 7.422 13.512 17.417 24.455 29.98 32.831-14.849-.572-28.743-4.475-41.684-11.708v1.142c0 22.271 6.995 41.824 20.983 58.674 13.99 16.848 31.645 27.453 52.961 31.833a95.543 95.543 0 0 1-24.269 3.138c-5.33 0-11.136-.475-17.416-1.42 5.9 18.459 16.75 33.633 32.546 45.535 15.799 11.896 33.691 18.028 53.677 18.418-33.498 26.262-71.66 39.393-114.486 39.393-8.186 0-15.607-.373-22.27-1.139 42.827 27.596 90.03 41.394 141.612 41.394 32.738 0 63.478-5.181 92.21-15.557 28.746-10.369 53.297-24.267 73.665-41.686 20.362-17.415 37.925-37.448 52.674-60.097 14.75-22.651 25.738-46.298 32.977-70.946 7.23-24.653 10.848-49.344 10.848-74.092 0-5.33-.096-9.325-.287-11.991 18.087-13.127 33.504-29.023 46.258-47.672z"></path>
		</symbol>
	
</svg>
