<?xml version="1.0" encoding="utf-8"?>
<!DOCTYPE svg PUBLIC "-//W3C//DTD SVG 1.1//EN" "http://www.w3.org/Graphics/SVG/1.1/DTD/svg11.dtd">
<svg version="1.1" id="Layer_1" xmlns="http://www.w3.org/2000/svg" xmlns:xlink="http://www.w3.org/1999/xlink" x="0px" y="0px" width="33.9967px" height="33.9964px" viewBox="0 0 33.9967 33.9964" enable-background="new 0 0 33.9967 33.9964" xml:space="preserve">
    <path d="M33.9967,19.0897v-4.2495l-5.0795-2.1161c-0.1412-0.3982-0.2906-0.7837-0.4732-1.1625l2.0511-5.1044l-3.0055-3.0046
    l-5.0589,2.0832c-0.3859-0.1869-0.7803-0.3438-1.1869-0.4898L19.0901,0h-4.2497l-2.0999,5.0292
    c-0.4233,0.1499-0.83,0.3071-1.2326,0.4983L6.4574,3.4983L3.4528,6.5029l2.059,5.0048c-0.1997,0.4106-0.3612,0.8295-0.5153,1.2621
    L0,14.9066v4.2496l5.0008,2.0831c0.1541,0.4317,0.3195,0.8509,0.5182,1.2619l-2.0205,5.0379l3.0045,3.0046l5.0175-2.0665
    c0.4029,0.1907,0.8139,0.3445,1.2366,0.4894l2.1497,5.0298h4.2496l2.104-5.0544c0.4025-0.1495,0.8009-0.3074,1.1817-0.4898
    l5.0962,2.0415l3.0045-3.0042l-2.0925-5.0716c0.1794-0.3805,0.3248-0.7677,0.4658-1.1619L33.9967,19.0897z M16.9652,23.3724
    c-3.5182,0-6.3743-2.855-6.3743-6.3743c0-3.5188,2.8561-6.3744,6.3743-6.3744c3.5192,0,6.3744,2.8556,6.3744,6.3744
    C23.3396,20.5174,20.4844,23.3724,16.9652,23.3724z"/>
</svg>