<?xml version="1.0" encoding="utf-8"?>
<!DOCTYPE svg PUBLIC "-//W3C//DTD SVG 1.1//EN" "http://www.w3.org/Graphics/SVG/1.1/DTD/svg11.dtd">
<svg version="1.1" id="Layer_1" xmlns="http://www.w3.org/2000/svg" xmlns:xlink="http://www.w3.org/1999/xlink" x="0px" y="0px"
	 width="53.0032997px" height="70.9981995px" viewBox="0 0 53.0032997 70.9981995"
	 enable-background="new 0 0 53.0032997 70.9981995" xml:space="preserve">
<path d="M18.7705002,32.7629013c-0.3791008-0.4524002-0.8733997-0.830801-1.4850998-1.1366005
	c-0.6109009-0.3006001-1.3635006-0.4521999-2.2555008-0.4521999H8.2842999v13.5014973h4.0334997v-4.084198h2.3831997
	c0.7459002,0,1.4328012-0.0998993,2.0637999-0.2966995c0.6279011-0.1942024,1.1730995-0.4911003,1.6296997-0.8879013
	c0.457201-0.3971977,0.8130016-0.8942986,1.0636005-1.4959984c0.2506008-0.5970001,0.3752003-1.3066025,0.3752003-2.1257019
	c0-0.4808998-0.0820999-0.9880981-0.2469997-1.5335999C19.4214993,33.7128983,19.1507988,33.2151985,18.7705002,32.7629013z
	 M15.8302994,36.7412987c-0.1282997,0.1970024-0.2938995,0.3416023-0.4954996,0.4370995
	c-0.2013006,0.0924034-0.4302998,0.1509018-0.6868,0.1677017c-0.2573004,0.0167007-0.5138998,0.0290985-0.7706003,0.0290985
	h-1.5579996v-2.7421989h1.7967997c0.2445002,0,0.4826002,0.0097008,0.7146006,0.0317993
	c0.2325993,0.0185013,0.4369993,0.0706024,0.6144991,0.1599007c0.1768007,0.0870018,0.3178005,0.2194023,0.4215002,0.3978004
	c0.1022005,0.1747017,0.1556997,0.4155998,0.1556997,0.7164993C16.0224991,36.2795982,15.9583998,36.547699,15.8302994,36.7412987z"
	/>
<path d="M32.3906975,33.2636986c-0.465498-0.6239967-1.0710983-1.1301994-1.822998-1.5143986
	c-0.7518005-0.3843994-1.6737003-0.5751991-2.7595997-0.5751991h-6.6182003v13.5014973h5.8290005
	c1.1365986,0,2.1257992-0.157299,2.9699993-0.4744987c0.8430004-0.3134995,1.5394001-0.766098,2.0884018-1.3507004
	c0.549099-0.5879974,0.9576988-1.2986984,1.2291985-2.1357994c0.2686005-0.8400993,0.4029007-1.775898,0.4029007-2.8097992
	c0-0.8419991-0.1044998-1.6744995-0.3104019-2.4854012C33.1900978,34.6077995,32.8560982,33.8891983,32.3906975,33.2636986z
	 M29.5771999,38.9076996c-0.0656013,0.391201-0.2014008,0.7572021-0.4028015,1.0960999
	c-0.2012997,0.341301-0.4923,0.6259003-0.8710995,0.8612022c-0.3789005,0.2341995-0.8801994,0.3484001-1.5014,0.3484001h-1.5762005
	v-6.5804024h1.2830009c0.7318001,0,1.3113003,0.1257019,1.7320004,0.3776016
	c0.421999,0.2527008,0.7397003,0.5554008,0.9546986,0.9082985c0.2117004,0.353199,0.3490009,0.7070007,0.4027004,1.0688019
	c0.0538006,0.3597984,0.0834999,0.6464005,0.0834999,0.8614998C29.6785984,38.1632996,29.6457996,38.5172997,29.5771999,38.9076996z
	"/>
<path d="M35.4516983,44.6755981h4.0335999v-5.1428986h5.223999v-3.2160988h-5.223999v-1.6836014h6.0832024v-3.4588985H35.4516983
	V44.6755981z"/>
<path d="M43.1548996,0H0v70.9981995h53.0032997V9.8497L43.1548996,0z M48.9207001,66.8226013H4.0745001V4.1757998h36.6922989
	v7.3088002h8.1539001V66.8226013z"/>
</svg>
