<?xml version="1.0" encoding="utf-8"?>
<!DOCTYPE svg PUBLIC "-//W3C//DTD SVG 1.1//EN" "http://www.w3.org/Graphics/SVG/1.1/DTD/svg11.dtd">
<svg version="1.1" id="Capa_1" xmlns="http://www.w3.org/2000/svg" xmlns:xlink="http://www.w3.org/1999/xlink" x="0px" y="0px"
	 width="292.3540344px" height="438.5360107px" viewBox="73.0900116 0 292.3540344 438.5360107"
	 enable-background="new 73.0900116 0 292.3540344 438.5360107" xml:space="preserve">
<path d="M322.6210022,42.8250008C294.072998,14.2720003,259.618988,0,219.2680054,0
	c-40.3529968,0-74.803009,14.2749996-103.3529968,42.8250008c-28.548996,28.5489998-42.8249969,62.9999962-42.8249969,103.3529968
	c0,20.7490082,3.1399994,37.7819977,9.4189987,51.1060028L186.7190094,418.269989
	c2.8560028,6.276001,7.2830048,11.2250061,13.2779999,14.8380127c5.9960022,3.6170044,12.4190063,5.428009,19.272995,5.428009
	c6.852005,0,13.2779999-1.8110046,19.272995-5.428009c5.9960022-3.6130066,10.5130005-8.5620117,13.5590057-14.8380127
	l103.9180145-220.9859924c6.2820129-13.3240051,9.4240112-30.3580017,9.4240112-51.1060028
	C365.4490051,105.8249969,351.1759949,71.3779984,322.6210022,42.8250008z M270.9419861,197.8549957
	c-14.2730103,14.2720032-31.496994,21.4109955-51.673996,21.4109955s-37.401001-7.1390076-51.6779938-21.4109955
	c-14.2749939-14.2769928-21.4140015-31.5009918-21.4140015-51.6779938c0-20.1750031,7.1390076-37.4020004,21.4140015-51.6750031
	c14.2770081-14.2750015,31.5039978-21.4140015,51.678009-21.4140015c20.177002,0,37.401001,7.1389999,51.6740112,21.4140015
	c14.2739868,14.2720032,21.4129944,31.5,21.4129944,51.6750031S285.2170105,183.5749969,270.9419861,197.8549957z"/>
</svg>