<?xml version="1.0" encoding="utf-8"?>
<!DOCTYPE svg PUBLIC "-//W3C//DTD SVG 1.1//EN" "http://www.w3.org/Graphics/SVG/1.1/DTD/svg11.dtd">
<svg version="1.1" id="Layer_1" xmlns="http://www.w3.org/2000/svg" xmlns:xlink="http://www.w3.org/1999/xlink" x="0px" y="0px" width="20.9975px" height="35.001px" viewBox="0 0 20.9975 35.001" enable-background="new 0 0 20.9975 35.001" xml:space="preserve">
    <path d="M20.9049,14.2806c-0.1297-0.2037-0.3658-0.3033-0.5964-0.2498l-6.7341,1.5672l2.0502-14.932
    c0.0364-0.2653-0.1059-0.5221-0.346-0.6224c-0.24-0.1018-0.5164-0.0207-0.6691,0.195L0.1092,20.6803
    c-0.1368,0.1933-0.1459,0.453-0.0226,0.6565c0.123,0.2024,0.3514,0.3075,0.5818,0.2636l7.3129-1.4073L5.8444,34.3268
    c-0.0399,0.2657,0.1007,0.5256,0.3413,0.6296c0.0706,0.0296,0.1434,0.0446,0.2165,0.0446c0.176,0,0.3474-0.0856,0.4563-0.2396
    L20.8878,14.946C21.0274,14.7492,21.0345,14.4847,20.9049,14.2806z"/>
</svg>