<?xml version="1.0" encoding="utf-8"?>
<!-- Generator: Adobe Illustrator 17.0.0, SVG Export Plug-In . SVG Version: 6.00 Build 0)  -->
<!DOCTYPE svg PUBLIC "-//W3C//DTD SVG 1.1//EN" "http://www.w3.org/Graphics/SVG/1.1/DTD/svg11.dtd">
<svg version="1.1" id="Layer_1" xmlns="http://www.w3.org/2000/svg" xmlns:xlink="http://www.w3.org/1999/xlink" x="0px" y="0px"
	 width="22px" height="22px" viewBox="0 0 22 22" enable-background="new 0 0 22 22" xml:space="preserve">
<path d="M6.6001,17.6000004c-1.21,0-2.2000999,0.9899998-2.2000999,2.1998997C4.4000001,21.0100994,5.3901,22,6.6001,22
	c1.2098999,0,2.2000003-0.9899006,2.2000003-2.2000999C8.8001003,18.5900002,7.8099999,17.6000004,6.6001,17.6000004z M0,0
	v2.1998999h2.2l3.9599998,8.3601007l-1.54,2.6398993c-0.1099997,0.3299999-0.2199998,0.7700005-0.2199998,1.1002007
	C4.4000001,15.5101004,5.3901,16.5,6.6001,16.5h13.1998997v-2.1998997H7.0401001
	c-0.1101003,0-0.2200999-0.1100006-0.2200999-0.2202005v-0.1099997l0.9899998-1.8698997h8.1399994
	c0.8800001,0,1.54-0.4400005,1.870101-1.1000004l3.9599991-7.1499C22,3.6301,22,3.5201001,22,3.3001001
	c0-0.6600001-0.4400005-1.1002002-1.1000004-1.1002002H4.6199999L3.6301,0H0z M17.6000004,17.6000004
	c-1.210001,0-2.2000008,0.9899998-2.2000008,2.1998997C15.3999996,21.0100994,16.3899994,22,17.6000004,22
	c1.2099991,0,2.1999989-0.9899006,2.1999989-2.2000999C19.7999992,18.5900002,18.8099995,17.6000004,17.6000004,17.6000004z"/>
</svg>
