<?xml version="1.0" encoding="utf-8"?>
<!DOCTYPE svg PUBLIC "-//W3C//DTD SVG 1.1//EN" "http://www.w3.org/Graphics/SVG/1.1/DTD/svg11.dtd">
<svg version="1.1" id="Layer_1" xmlns="http://www.w3.org/2000/svg" xmlns:xlink="http://www.w3.org/1999/xlink" x="0px" y="0px" width="72.99869px" height="73px" viewBox="0 0 72.99869 73" enable-background="new 0 0 72.99869 73" xml:space="preserve">
    <path d="M1.28348,18.3563c-0.7169,0.0081-1.2915,0.5947-1.2834,1.3102l0.0633,5.5868c0.008,0.7105,0.5877,1.281,1.2977,1.281
        c0.0051,0,0.0099,0,0.015,0l1.9326,0.0949c0.5063,2.1709,1.3915,4.2703,2.6527,6.1945l-1.2662,1.4596
        c-0.5012,0.5116-0.4919,1.3317,0.0208,1.8319l4.0028,3.9061c0.2526,0.2463,0.5802,0.3691,0.9074,0.3691
        c0.3372,0,0.6741-0.1302,0.9285-0.3898l1.4332-1.2966c1.8545,1.1521,3.8594,1.9625,5.9258,2.4323
        c0.1508-0.2581,0.3352-0.499,0.5523-0.7159c0.6461-0.646,1.5002-1.0093,2.4118-1.0277l0.8606-0.0529
        c0.0064-0.0225,0.0132-0.0447,0.0196-0.0672c0.2734-0.958,0.603-1.8965,0.9869-2.8127c-0.1647,0.0057-0.3293,0.0092-0.4941,0.0092
        c-1.4772,0-2.9543-0.2272-4.3755-0.6823c-0.6329-0.2026-1.2547-0.4501-1.8601-0.7432c-1.3503-0.6538-2.6198-1.5323-3.752-2.6372
        c-1.1323-1.1049-2.0409-2.3516-2.7264-3.6843c-0.0678-0.1321-0.1337-0.2648-0.1971-0.3984l10.4307-2.3231
        c0.7519,0.4913,1.6163,0.7359,2.4807,0.7359c0.0632,0,0.1264-0.0013,0.1895-0.0041l1.3383,1.3061l4.3929-4.3922l-1.3847-1.3511
        c0.0184-0.9733-0.2754-1.9503-0.8802-2.7691l2.0756-10.3838c0.1698,0.0742,0.3383,0.1513,0.5056,0.2322
        c1.3504,0.6538,2.6199,1.5324,3.7521,2.6372c1.1323,1.1048,2.0411,2.3518,2.7263,3.6843c0.3074,0.5974,0.5693,1.2123,0.7867,1.8392
        c0.5871,1.6939,0.8449,3.4768,0.7736,5.25c0.8822-0.3622,1.7848-0.6745,2.7056-0.9354l0.0168-0.2829l0.0345-0.5763
        c0.017-0.9098,0.3797-1.7631,1.0256-2.4089c0.3421-0.3418,0.8852-0.7927,0.8852-0.7927c-0.5063-2.1708-1.3914-4.2703-2.6525-6.1944
        l1.2662-1.4594c0.501-0.5116,0.4917-1.332-0.0209-1.8322l-4.0029-3.9058c-0.2524-0.2463-0.58-0.3693-0.9073-0.3693
        c-0.3371,0-0.6739,0.1303-0.9283,0.39l-1.4334,1.2963c-1.9558-1.2148-4.0786-2.0506-6.2646-2.5068l-0.1388-1.9263
        c-0.0081-0.7105-0.5877-1.2809-1.2978-1.2811c-0.0051,0-0.0099,0-0.0149,0.0002l-5.5977,0.0632
        c-0.7169,0.0079-1.2915,0.5947-1.2833,1.31l-0.0951,1.929c-2.1751,0.5055-4.2786,1.3889-6.2064,2.6475l-1.4623-1.2636
        c-0.2525-0.2463-0.5801-0.3691-0.9074-0.3691c-0.3372,0-0.674,0.1301-0.9284,0.3898l-3.9133,3.9951
        c-0.5012,0.5119-0.492,1.332,0.0207,1.8324l1.2989,1.4305c-1.2172,1.9521-2.0545,4.0709-2.5116,6.2528L1.28348,18.3563z
         M19.74298,18.4355c-0.2609,0.1731-0.5079,0.3753-0.7357,0.6078c-0.2647,0.2702-0.488,0.5655-0.6713,0.8773l-8.447,1.7782
        l-1.9247,0.4051c0.0105-1.4395,0.2383-2.8779,0.6834-4.2628c0.2032-0.6317,0.4511-1.2521,0.7447-1.8563
        c0.6552-1.3479,1.5354-2.615,2.6423-3.745c1.107-1.1301,2.3561-2.037,3.6913-2.7212c0.5987-0.3066,1.2147-0.568,1.8429-0.7849
        c1.3409-0.463,2.7374-0.7219,4.1411-0.7748l-0.3618,1.9273L19.74298,18.4355z M23.75568,23.6767
        c-0.0201,0.0206-0.0408,0.0401-0.0616,0.0597c-0.0068,0.0066-0.0135,0.0132-0.0205,0.0196
        c-0.401,0.3677-0.9115,0.5525-1.4223,0.5525c-0.5303,0-1.0608-0.1989-1.47-0.5982c-0.1753-0.171-0.3139-0.3655-0.4164-0.5733
        c-0.3833-0.7763-0.2578-1.7413,0.3828-2.3955c0.4119-0.4204,0.9574-0.6313,1.5035-0.6313c0.2376,0,0.4753,0.0399,0.7021,0.1199
        c0.2797,0.0985,0.5429,0.2573,0.7688,0.4779C24.55268,21.5187,24.56788,22.8477,23.75568,23.6767z"/>
    <path d="M71.43429,51.1557c0.8647-0.0006,1.56509-0.701,1.5644-1.564l-0.00571-6.7396c-0.00069-0.8625-0.7017-1.5614-1.5658-1.5614
        c-0.0005,0-0.0009,0-0.0014,0l-2.32899-0.1389c-0.6017-2.7075-1.6716-5.2389-3.1227-7.5041l1.5462-1.7452
        c0.611-0.6108,0.6102-1.6004-0.0019-2.2102l-4.7787-4.7614c-0.3056-0.3045-0.7061-0.4569-1.1062-0.4569
        c-0.4012,0-0.8023,0.153-1.1081,0.4586l-1.7459,1.5463c-2.2721-1.4444-4.8102-2.508-7.5239-3.1041l-0.1431-2.3242
        c-0.0007-0.8626-0.7016-1.5615-1.5659-1.5615c-0.0004,0-0.0009,0-0.0013,0l-3.1563,0.0028l-0.9726,0.0007l-0.9727,0.0008
        l-1.6508,0.0014c-0.8648,0.0007-1.5652,0.701-1.5645,1.5641l-0.1391,2.3245c-0.6454,0.1429-1.2804,0.3131-1.9048,0.5077
        c-1.0058,0.3136-1.9828,0.6923-2.9254,1.1323c-0.3822,0.1786-0.7583,0.3678-1.1288,0.5659
        c-0.4185,0.2237-0.8297,0.4593-1.2325,0.707c-0.0465,0.0287-0.0926,0.0577-0.139,0.0866c-0.0626,0.0391-0.1259,0.0775-0.1881,0.1173
        l-1.7486-1.5432c-0.3055-0.3046-0.7059-0.4568-1.1061-0.4568c-0.0854,0-0.1706,0.0083-0.2551,0.0222
        c-0.3125,0.0514-0.6124,0.1956-0.8532,0.4365l-0.0447,0.0448l-4.3932,4.3921l-0.3327,0.3327
        c-0.1239,0.1237-0.2213,0.2637-0.295,0.4125c-0.2076,0.4196-0.2145,0.9117-0.0217,1.3364c0.0758,0.1669,0.1809,0.324,0.3186,0.4611
        l1.5491,1.7425c-0.037,0.0581-0.0727,0.1172-0.1092,0.1754c-0.251,0.4013-0.4904,0.8101-0.7172,1.227
        c-0.2003,0.3682-0.3907,0.7423-0.5714,1.1221c-0.4594,0.965-0.8554,1.9658-1.1807,2.998c-0.2052,0.6506-0.3827,1.3135-0.5314,1.9871
        l-2.3286,0.1427c-0.8649,0.0008-1.5654,0.701-1.5645,1.5643l0.0012,1.4834l0.0008,0.9871l0.0009,0.9774l0.0028,3.2915
        c0.0007,0.8628,0.7017,1.5615,1.5659,1.5615c0.0004,0,0.0009,0,0.0013,0l2.329,0.1388c0.6015,2.7077,1.6717,5.239,3.1227,7.5042
        l-1.5462,1.7452c-0.6109,0.6108-0.6101,1.6004,0.0019,2.2102l4.7787,4.7614c0.3057,0.3046,0.706,0.4568,1.1063,0.4568
        c0.4012,0,0.8022-0.1528,1.1081-0.4585l1.7459-1.5462c2.2722,1.4443,4.8101,2.5081,7.524,3.1039l0.143,2.3243
        C41.27208,72.3013,41.97308,73,42.83718,73c0.0005,0,0.0008,0,0.0013,0l6.7524-0.0056c0.8647-0.0008,1.5652-0.701,1.5646-1.5641
        l0.139-2.3247c2.7127-0.6005,5.2491-1.6683,7.5187-3.1167l1.7484,1.5433c0.3057,0.3046,0.7061,0.4568,1.1063,0.4568
        c0.4012,0,0.8023-0.1528,1.1081-0.4586l4.7707-4.7697c0.611-0.6108,0.6101-1.6004-0.0018-2.2102l-1.5492-1.7425
        c1.4472-2.2677,2.5129-4.8009,3.1099-7.5096L71.43429,51.1557z M62.54638,51.6846c-0.2564,0.7686-0.5662,1.5126-0.9242,2.2287
        c-1.6661,3.333-4.3841,6.0506-7.7209,7.7192c-0.7168,0.3584-1.4618,0.6688-2.2314,0.9262c-1.7167,0.574-3.5535,0.8862-5.4636,0.8879
        c-0.005,0-0.0099,0-0.015,0c-1.9046,0-3.7368-0.3091-5.4501-0.8786c-0.1702-0.0567-0.3392-0.1156-0.507-0.1774l7.025-10.7881
        c1.1412-0.2253,2.1538-0.8049,2.9201-1.6184l10.9587-0.0095l1.8815-0.0016C62.89079,50.5552,62.73288,51.1263,62.54638,51.6846z
         M29.84628,51.7123c-0.575-1.7133-0.8879-3.5467-0.8896-5.4532c-0.0012-1.3484,0.1542-2.6606,0.4474-3.92
        c0.0904-0.3884,0.1939-0.7719,0.31-1.1499c0.0396-0.1288,0.0804-0.2572,0.1228-0.3846c0.0955-0.2862,0.1986-0.569,0.3085-0.8482
        c0.1855-0.4706,0.3912-0.9311,0.6158-1.3806c0.4755-0.9512,1.0365-1.8523,1.6731-2.6933c0.3863-0.5105,0.8006-0.9989,1.2406-1.4627
        l0.1811,0.2699l1.1367,1.6959l1.8079,2.6964l0.5526,0.8244l0.5527,0.8244l2.9327,4.3747c-0.0784,0.3689-0.1204,0.7514-0.12,1.1435
        c0.0003,0.4559,0.0575,0.8984,0.1634,1.3217l-5.7761,8.6477l-1.3161,1.9703c-1.2082-1.2495-2.2281-2.681-3.0156-4.2494
        C30.41518,53.2239,30.10398,52.4803,29.84628,51.7123z M42.37868,29.4657c1.222-0.2756,2.4931-0.422,3.7985-0.4231
        c0.005,0,0.0101,0,0.0151,0c1.9046,0,3.7368,0.309,5.45,0.8788c0.7699,0.256,1.5155,0.5651,2.233,0.9223
        c3.3396,1.663,6.0621,4.3757,7.7339,7.706c0.3592,0.7155,0.6703,1.4592,0.928,2.2272c0.1873,0.5581,0.3462,1.1288,0.476,1.7106
        l-1.8814,0.0017l-10.9586,0.0093c-0.8071-0.8542-1.8864-1.4487-3.1001-1.6449l-5.7956-8.8677l-0.615-0.9409l-0.5809-0.8887
        c0.2088-0.079,0.4194-0.1548,0.6321-0.2258c0.169-0.0566,0.3395-0.1096,0.5108-0.1612
        C41.60389,29.6555,41.98859,29.5538,42.37868,29.4657z M46.19178,43.7123c1.4004,0,2.536,1.1323,2.5372,2.5302
        c0,0.0346-0.0012,0.0689-0.0026,0.1032c-0.0004,0.0114-0.0006,0.0228-0.0011,0.0343c-0.0705,1.3346-1.1762,2.3959-2.5313,2.3968
        c-0.0007,0-0.0014,0-0.0021,0c-0.295,0-0.5781-0.0507-0.8415-0.1431c-0.9868-0.3462-1.6948-1.2835-1.6956-2.387
        c-0.001-1.018,0.6006-1.8957,1.4681-2.2987c0.3244-0.1506,0.6855-0.2353,1.0667-0.2357
        C46.19019,43.7123,46.19098,43.7123,46.19178,43.7123L46.19178,43.7123z"/>
</svg>